<svg width="46" height="46" viewBox="0 0 46 46" fill="none" xmlns="http://www.w3.org/2000/svg">
<g id="ion:warning">
<path id="Vector" d="M40.3462 35.8548L25.0341 7.4193C23.9488 5.4032 21.0576 5.4032 19.9714 7.4193L4.66021 35.8548C4.42456 36.2925 4.30642 36.7838 4.31731 37.2808C4.3282 37.7777 4.46776 38.2634 4.72236 38.6903C4.97697 39.1173 5.33791 39.4709 5.76997 39.7167C6.20203 39.9625 6.69043 40.0921 7.18751 40.0928H37.8144C38.3118 40.0928 38.8008 39.9638 39.2335 39.7183C39.6661 39.4729 40.0277 39.1193 40.2828 38.6923C40.538 38.2652 40.6779 37.7792 40.689 37.2819C40.7001 36.7846 40.582 36.2929 40.3462 35.8548ZM22.5032 35.6904C22.1478 35.6904 21.8004 35.585 21.5049 35.3876C21.2094 35.1902 20.9791 34.9095 20.8431 34.5812C20.7071 34.2529 20.6715 33.8916 20.7408 33.543C20.8102 33.1944 20.9813 32.8743 21.2326 32.623C21.4839 32.3717 21.8041 32.2005 22.1526 32.1312C22.5012 32.0619 22.8625 32.0975 23.1908 32.2335C23.5191 32.3695 23.7998 32.5998 23.9972 32.8953C24.1947 33.1908 24.3001 33.5382 24.3001 33.8936C24.3001 34.3701 24.1107 34.8272 23.7738 35.1641C23.4368 35.5011 22.9797 35.6904 22.5032 35.6904ZM24.4546 17.6184L23.9389 28.5793C23.9389 28.9605 23.7874 29.3262 23.5178 29.5958C23.2483 29.8653 22.8826 30.0168 22.5014 30.0168C22.1201 30.0168 21.7545 29.8653 21.4849 29.5958C21.2153 29.3262 21.0639 28.9605 21.0639 28.5793L20.5482 17.6229C20.5366 17.361 20.5778 17.0996 20.6694 16.854C20.7611 16.6085 20.9012 16.3839 21.0814 16.1937C21.2617 16.0035 21.4784 15.8515 21.7186 15.7468C21.9589 15.6421 22.2178 15.5868 22.4798 15.5843H22.4987C22.7625 15.5842 23.0237 15.6375 23.2663 15.741C23.509 15.8446 23.7282 15.9963 23.9106 16.1869C24.0931 16.3774 24.235 16.603 24.3279 16.85C24.4208 17.0969 24.4626 17.3602 24.451 17.6238L24.4546 17.6184Z" fill="#D10000"/>
</g>
</svg>
